STARTFONT 2.1
FONT -FontForge-Courgette-Book-R-Normal--8-80-72-72-P-41-ISO10646-1
SIZE 8 72 72
FONTBOUNDINGBOX 11 10 -2 -2
COMMENT "Generated by fontforge, http://fontforge.sourceforge.net"
COMMENT "Copyright (c) 2012, Sorkin Type Co (www.sorkintype.com) with Reserved Font Name "Courgette"."
STARTPROPERTIES 40
FOUNDRY "FontForge"
FAMILY_NAME "Courgette"
WEIGHT_NAME "Book"
SLANT "R"
SETWIDTH_NAME "Normal"
ADD_STYLE_NAME ""
PIXEL_SIZE 8
POINT_SIZE 80
RESOLUTION_X 72
RESOLUTION_Y 72
SPACING "P"
AVERAGE_WIDTH 41
CHARSET_REGISTRY "ISO10646"
CHARSET_ENCODING "1"
FONTNAME_REGISTRY ""
CHARSET_COLLECTIONS "ISO8859-2 ISO8859-9 ISO8859-4 ISO10646-1"
FONT_NAME "Courgette-Regular"
FACE_NAME "Courgette Regular"
COPYRIGHT "Copyright (c) 2012, Sorkin Type Co (www.sorkintype.com) with Reserved Font Name "Courgette"."
FONT_VERSION "1.002"
FONT_ASCENT 6
FONT_DESCENT 2
UNDERLINE_POSITION -1
UNDERLINE_THICKNESS 1
X_HEIGHT 3
CAP_HEIGHT 5
DEFAULT_CHAR 1
RAW_ASCENT 799
RAW_DESCENT 200
NORM_SPACE 2
RELATIVE_WEIGHT 40
RELATIVE_SETWIDTH 50
SUPERSCRIPT_X 0
SUPERSCRIPT_Y 3
SUPERSCRIPT_SIZE 5
SUBSCRIPT_X 0
SUBSCRIPT_Y 1
SUBSCRIPT_SIZE 5
AVG_LOWERCASE_WIDTH 38
AVG_UPPERCASE_WIDTH 47
ENDPROPERTIES
CHARS 407
STARTCHAR .null.dup1
ENCODING 0
SWIDTH 0 0
DWIDTH 0 0
BBX 1 1 0 0
BITMAP
00
ENDCHAR
STARTCHAR uni0001
ENCODING 1
SWIDTH 0 0
DWIDTH 0 0
BBX 1 1 0 0
BITMAP
00
ENDCHAR
STARTCHAR uni0002
ENCODING 2
SWIDTH 0 0
DWIDTH 0 0
BBX 1 1 0 0
BITMAP
00
ENDCHAR
STARTCHAR uni0003
ENCODING 3
SWIDTH 0 0
DWIDTH 0 0
BBX 1 1 0 0
BITMAP
00
ENDCHAR
STARTCHAR uni0004
ENCODING 4
SWIDTH 0 0
DWIDTH 0 0
BBX 1 1 0 0
BITMAP
00
ENDCHAR
STARTCHAR uni0005
ENCODING 5
SWIDTH 0 0
DWIDTH 0 0
BBX 1 1 0 0
BITMAP
00
ENDCHAR
STARTCHAR uni0006
ENCODING 6
SWIDTH 0 0
DWIDTH 0 0
BBX 1 1 0 0
BITMAP
00
ENDCHAR
STARTCHAR uni0007
ENCODING 7
SWIDTH 0 0
DWIDTH 0 0
BBX 1 1 0 0
BITMAP
00
ENDCHAR
STARTCHAR uni0008
ENCODING 8
SWIDTH 0 0
DWIDTH 0 0
BBX 1 1 0 0
BITMAP
00
ENDCHAR
STARTCHAR uni0009
ENCODING 9
SWIDTH 0 0
DWIDTH 0 0
BBX 1 1 0 0
BITMAP
00
ENDCHAR
STARTCHAR nonmarkingreturn
ENCODING 13
SWIDTH 0 0
DWIDTH 0 0
BBX 1 1 0 0
BITMAP
00
ENDCHAR
STARTCHAR uni0015
ENCODING 21
SWIDTH 0 0
DWIDTH 0 0
BBX 1 1 0 0
BITMAP
00
ENDCHAR
STARTCHAR uni0016
ENCODING 22
SWIDTH 0 0
DWIDTH 0 0
BBX 1 1 0 0
BITMAP
00
ENDCHAR
STARTCHAR uni0017
ENCODING 23
SWIDTH 0 0
DWIDTH 0 0
BBX 1 1 0 0
BITMAP
00
ENDCHAR
STARTCHAR uni0018
ENCODING 24
SWIDTH 0 0
DWIDTH 0 0
BBX 1 1 0 0
BITMAP
00
ENDCHAR
STARTCHAR uni0019
ENCODING 25
SWIDTH 0 0
DWIDTH 0 0
BBX 1 1 0 0
BITMAP
00
ENDCHAR
STARTCHAR space
ENCODING 32
SWIDTH 307 0
DWIDTH 2 0
BBX 1 1 0 0
BITMAP
00
ENDCHAR
STARTCHAR exclam
ENCODING 33
SWIDTH 417 0
DWIDTH 3 0
BBX 3 6 1 0
BITMAP
60
40
40
80
80
80
ENDCHAR
STARTCHAR quotedbl
ENCODING 34
SWIDTH 437 0
DWIDTH 4 0
BBX 3 2 1 4
BITMAP
A0
A0
ENDCHAR
STARTCHAR numbersign
ENCODING 35
SWIDTH 725 0
DWIDTH 6 0
BBX 6 6 0 0
BITMAP
18
28
7C
F8
50
50
ENDCHAR
STARTCHAR dollar
ENCODING 36
SWIDTH 545 0
DWIDTH 4 0
BBX 5 8 0 -1
BITMAP
08
30
48
50
20
A0
60
40
ENDCHAR
STARTCHAR percent
ENCODING 37
SWIDTH 876 0
DWIDTH 7 0
BBX 5 6 1 0
BITMAP
C8
D0
A0
28
58
98
ENDCHAR
STARTCHAR ampersand
ENCODING 38
SWIDTH 563 0
DWIDTH 5 0
BBX 5 6 0 0
BITMAP
30
48
50
60
98
E0
ENDCHAR
STARTCHAR quotesingle
ENCODING 39
SWIDTH 231 0
DWIDTH 2 0
BBX 1 2 1 4
BITMAP
80
80
ENDCHAR
STARTCHAR parenleft
ENCODING 40
SWIDTH 478 0
DWIDTH 4 0
BBX 4 9 1 -2
BITMAP
30
40
40
80
80
80
80
80
40
ENDCHAR
STARTCHAR parenright
ENCODING 41
SWIDTH 478 0
DWIDTH 4 0
BBX 4 9 -1 -2
BITMAP
20
10
10
10
10
10
20
20
C0
ENDCHAR
STARTCHAR asterisk
ENCODING 42
SWIDTH 518 0
DWIDTH 4 0
BBX 3 3 1 3
BITMAP
40
E0
C0
ENDCHAR
STARTCHAR plus
ENCODING 43
SWIDTH 617 0
DWIDTH 5 0
BBX 4 4 1 1
BITMAP
40
40
F0
40
ENDCHAR
STARTCHAR comma
ENCODING 44
SWIDTH 312 0
DWIDTH 3 0
BBX 2 3 0 -1
BITMAP
80
40
80
ENDCHAR
STARTCHAR hyphen
ENCODING 45
SWIDTH 452 0
DWIDTH 4 0
BBX 2 1 1 2
BITMAP
C0
ENDCHAR
STARTCHAR period
ENCODING 46
SWIDTH 270 0
DWIDTH 2 0
BBX 1 1 0 0
BITMAP
80
ENDCHAR
STARTCHAR slash
ENCODING 47
SWIDTH 405 0
DWIDTH 3 0
BBX 6 9 -1 -1
BITMAP
04
08
08
10
10
20
20
40
80
ENDCHAR
STARTCHAR zero
ENCODING 48
SWIDTH 621 0
DWIDTH 5 0
BBX 4 6 1 0
BITMAP
70
90
90
90
A0
C0
ENDCHAR
STARTCHAR one
ENCODING 49
SWIDTH 405 0
DWIDTH 3 0
BBX 2 6 1 0
BITMAP
40
C0
40
80
80
80
ENDCHAR
STARTCHAR two
ENCODING 50
SWIDTH 524 0
DWIDTH 4 0
BBX 4 6 0 0
BITMAP
30
50
10
20
40
F0
ENDCHAR
STARTCHAR three
ENCODING 51
SWIDTH 537 0
DWIDTH 4 0
BBX 4 6 0 0
BITMAP
30
50
10
20
A0
E0
ENDCHAR
STARTCHAR four
ENCODING 52
SWIDTH 529 0
DWIDTH 4 0
BBX 4 6 0 0
BITMAP
20
50
50
F0
20
20
ENDCHAR
STARTCHAR five
ENCODING 53
SWIDTH 540 0
DWIDTH 4 0
BBX 5 6 0 0
BITMAP
38
40
70
10
90
E0
ENDCHAR
STARTCHAR six
ENCODING 54
SWIDTH 554 0
DWIDTH 4 0
BBX 4 6 1 0
BITMAP
70
A0
E0
A0
A0
C0
ENDCHAR
STARTCHAR seven
ENCODING 55
SWIDTH 473 0
DWIDTH 4 0
BBX 3 6 1 0
BITMAP
E0
20
40
80
80
80
ENDCHAR
STARTCHAR eight
ENCODING 56
SWIDTH 524 0
DWIDTH 4 0
BBX 4 6 0 0
BITMAP
30
50
50
60
A0
60
ENDCHAR
STARTCHAR nine
ENCODING 57
SWIDTH 554 0
DWIDTH 4 0
BBX 4 6 0 0
BITMAP
30
50
50
70
50
E0
ENDCHAR
STARTCHAR colon
ENCODING 58
SWIDTH 312 0
DWIDTH 3 0
BBX 2 4 0 0
BITMAP
40
40
00
C0
ENDCHAR
STARTCHAR semicolon
ENCODING 59
SWIDTH 312 0
DWIDTH 3 0
BBX 2 5 0 -1
BITMAP
40
00
80
40
80
ENDCHAR
STARTCHAR less
ENCODING 60
SWIDTH 637 0
DWIDTH 5 0
BBX 4 4 1 0
BITMAP
30
C0
C0
30
ENDCHAR
STARTCHAR equal
ENCODING 61
SWIDTH 617 0
DWIDTH 5 0
BBX 4 2 1 2
BITMAP
F0
F0
ENDCHAR
STARTCHAR greater
ENCODING 62
SWIDTH 606 0
DWIDTH 5 0
BBX 4 4 1 0
BITMAP
C0
30
60
80
ENDCHAR
STARTCHAR question
ENCODING 63
SWIDTH 516 0
DWIDTH 4 0
BBX 3 6 1 0
BITMAP
60
60
60
80
00
80
ENDCHAR
STARTCHAR at
ENCODING 64
SWIDTH 905 0
DWIDTH 7 0
BBX 7 7 0 -1
BITMAP
1C
62
5E
AA
BC
40
38
ENDCHAR
STARTCHAR A
ENCODING 65
SWIDTH 615 0
DWIDTH 5 0
BBX 6 6 -1 0
BITMAP
0C
14
14
3C
28
CC
ENDCHAR
STARTCHAR B
ENCODING 66
SWIDTH 551 0
DWIDTH 4 0
BBX 5 6 0 0
BITMAP
70
28
50
60
90
E0
ENDCHAR
STARTCHAR C
ENCODING 67
SWIDTH 533 0
DWIDTH 4 0
BBX 5 6 0 0
BITMAP
38
48
50
80
80
70
ENDCHAR
STARTCHAR D
ENCODING 68
SWIDTH 630 0
DWIDTH 5 0
BBX 5 6 0 0
BITMAP
78
28
48
48
90
E0
ENDCHAR
STARTCHAR E
ENCODING 69
SWIDTH 509 0
DWIDTH 4 0
BBX 5 6 0 0
BITMAP
38
48
50
60
80
60
ENDCHAR
STARTCHAR F
ENCODING 70
SWIDTH 518 0
DWIDTH 4 0
BBX 5 6 0 0
BITMAP
78
A0
20
70
40
80
ENDCHAR
STARTCHAR G
ENCODING 71
SWIDTH 598 0
DWIDTH 5 0
BBX 5 6 0 0
BITMAP
38
48
50
98
90
60
ENDCHAR
STARTCHAR H
ENCODING 72
SWIDTH 668 0
DWIDTH 5 0
BBX 6 6 0 0
BITMAP
64
28
78
48
90
98
ENDCHAR
STARTCHAR I
ENCODING 73
SWIDTH 327 0
DWIDTH 3 0
BBX 3 6 0 0
BITMAP
60
20
40
40
40
80
ENDCHAR
STARTCHAR J
ENCODING 74
SWIDTH 393 0
DWIDTH 3 0
BBX 4 8 -1 -2
BITMAP
70
10
10
10
20
20
40
80
ENDCHAR
STARTCHAR K
ENCODING 75
SWIDTH 616 0
DWIDTH 5 0
BBX 5 6 0 0
BITMAP
68
48
50
60
B0
98
ENDCHAR
STARTCHAR L
ENCODING 76
SWIDTH 517 0
DWIDTH 4 0
BBX 5 6 0 0
BITMAP
30
28
50
40
80
F0
ENDCHAR
STARTCHAR M
ENCODING 77
SWIDTH 931 0
DWIDTH 7 0
BBX 9 6 -1 0
BITMAP
0D80
1B00
2D00
2D00
4A00
8B00
ENDCHAR
STARTCHAR N
ENCODING 78
SWIDTH 708 0
DWIDTH 6 0
BBX 6 6 0 0
BITMAP
24
64
64
98
98
90
ENDCHAR
STARTCHAR O
ENCODING 79
SWIDTH 655 0
DWIDTH 5 0
BBX 5 6 0 0
BITMAP
38
48
48
48
90
60
ENDCHAR
STARTCHAR P
ENCODING 80
SWIDTH 553 0
DWIDTH 4 0
BBX 5 6 0 0
BITMAP
78
28
58
60
80
80
ENDCHAR
STARTCHAR Q
ENCODING 81
SWIDTH 655 0
DWIDTH 5 0
BBX 5 7 1 -1
BITMAP
70
90
90
90
A0
C0
38
ENDCHAR
STARTCHAR R
ENCODING 82
SWIDTH 623 0
DWIDTH 5 0
BBX 5 6 0 0
BITMAP
78
28
48
70
50
98
ENDCHAR
STARTCHAR S
ENCODING 83
SWIDTH 474 0
DWIDTH 4 0
BBX 4 6 0 0
BITMAP
30
50
50
40
A0
E0
ENDCHAR
STARTCHAR T
ENCODING 84
SWIDTH 471 0
DWIDTH 4 0
BBX 5 6 0 0
BITMAP
78
20
20
20
40
C0
ENDCHAR
STARTCHAR U
ENCODING 85
SWIDTH 624 0
DWIDTH 5 0
BBX 6 6 0 0
BITMAP
64
48
48
50
B0
D8
ENDCHAR
STARTCHAR V
ENCODING 86
SWIDTH 587 0
DWIDTH 5 0
BBX 5 6 1 0
BITMAP
C8
48
90
A0
C0
80
ENDCHAR
STARTCHAR W
ENCODING 87
SWIDTH 941 0
DWIDTH 8 0
BBX 8 6 0 0
BITMAP
61
25
59
6A
B2
4C
ENDCHAR
STARTCHAR X
ENCODING 88
SWIDTH 552 0
DWIDTH 4 0
BBX 6 6 0 0
BITMAP
2C
30
20
20
60
90
ENDCHAR
STARTCHAR Y
ENCODING 89
SWIDTH 580 0
DWIDTH 5 0
BBX 6 8 0 -2
BITMAP
64
48
48
50
B0
D0
20
C0
ENDCHAR
STARTCHAR Z
ENCODING 90
SWIDTH 501 0
DWIDTH 4 0
BBX 5 6 0 0
BITMAP
78
10
20
40
80
F0
ENDCHAR
STARTCHAR bracketleft
ENCODING 91
SWIDTH 396 0
DWIDTH 3 0
BBX 4 9 0 -2
BITMAP
10
20
20
20
40
40
40
80
C0
ENDCHAR
STARTCHAR backslash
ENCODING 92
SWIDTH 464 0
DWIDTH 4 0
BBX 3 9 0 -1
BITMAP
80
80
40
40
40
40
20
20
20
ENDCHAR
STARTCHAR bracketright
ENCODING 93
SWIDTH 394 0
DWIDTH 3 0
BBX 4 9 0 -2
BITMAP
30
10
20
20
40
40
40
80
80
ENDCHAR
STARTCHAR asciicircum
ENCODING 94
SWIDTH 540 0
DWIDTH 4 0
BBX 3 4 1 2
BITMAP
40
40
A0
A0
ENDCHAR
STARTCHAR underscore
ENCODING 95
SWIDTH 530 0
DWIDTH 4 0
BBX 5 1 -1 -2
BITMAP
F8
ENDCHAR
STARTCHAR grave
ENCODING 96
SWIDTH 219 0
DWIDTH 2 0
BBX 1 2 0 4
BITMAP
80
80
ENDCHAR
STARTCHAR a
ENCODING 97
SWIDTH 541 0
DWIDTH 4 0
BBX 4 4 0 0
BITMAP
70
50
A0
D0
ENDCHAR
STARTCHAR b
ENCODING 98
SWIDTH 525 0
DWIDTH 4 0
BBX 4 7 0 0
BITMAP
40
40
40
70
50
90
E0
ENDCHAR
STARTCHAR c
ENCODING 99
SWIDTH 465 0
DWIDTH 4 0
BBX 4 4 0 0
BITMAP
70
70
80
E0
ENDCHAR
STARTCHAR d
ENCODING 100
SWIDTH 557 0
DWIDTH 4 0
BBX 5 7 0 0
BITMAP
08
08
08
30
50
B0
D0
ENDCHAR
STARTCHAR e
ENCODING 101
SWIDTH 471 0
DWIDTH 4 0
BBX 4 4 0 0
BITMAP
70
70
C0
60
ENDCHAR
STARTCHAR f
ENCODING 102
SWIDTH 393 0
DWIDTH 3 0
BBX 4 8 0 -1
BITMAP
10
30
40
E0
40
40
80
80
ENDCHAR
STARTCHAR g
ENCODING 103
SWIDTH 526 0
DWIDTH 4 0
BBX 4 6 0 -2
BITMAP
70
50
B0
E0
20
40
ENDCHAR
STARTCHAR h
ENCODING 104
SWIDTH 555 0
DWIDTH 4 0
BBX 4 7 0 0
BITMAP
20
20
40
70
50
90
B0
ENDCHAR
STARTCHAR i
ENCODING 105
SWIDTH 286 0
DWIDTH 2 0
BBX 3 6 0 0
BITMAP
60
00
40
40
80
C0
ENDCHAR
STARTCHAR j
ENCODING 106
SWIDTH 281 0
DWIDTH 2 0
BBX 3 8 -1 -2
BITMAP
20
00
20
20
20
40
40
80
ENDCHAR
STARTCHAR k
ENCODING 107
SWIDTH 497 0
DWIDTH 4 0
BBX 4 7 0 0
BITMAP
20
20
40
50
60
C0
B0
ENDCHAR
STARTCHAR l
ENCODING 108
SWIDTH 279 0
DWIDTH 2 0
BBX 3 7 0 0
BITMAP
20
20
40
40
40
80
C0
ENDCHAR
STARTCHAR m
ENCODING 109
SWIDTH 814 0
DWIDTH 7 0
BBX 6 4 0 0
BITMAP
74
5C
94
A4
ENDCHAR
STARTCHAR n
ENCODING 110
SWIDTH 561 0
DWIDTH 4 0
BBX 4 4 0 0
BITMAP
70
50
90
B0
ENDCHAR
STARTCHAR o
ENCODING 111
SWIDTH 514 0
DWIDTH 4 0
BBX 4 4 0 0
BITMAP
70
50
90
E0
ENDCHAR
STARTCHAR p
ENCODING 112
SWIDTH 550 0
DWIDTH 4 0
BBX 5 6 -1 -2
BITMAP
38
28
48
70
40
80
ENDCHAR
STARTCHAR q
ENCODING 113
SWIDTH 533 0
DWIDTH 4 0
BBX 4 6 0 -2
BITMAP
70
50
90
E0
20
20
ENDCHAR
STARTCHAR r
ENCODING 114
SWIDTH 407 0
DWIDTH 3 0
BBX 4 4 0 0
BITMAP
70
40
80
80
ENDCHAR
STARTCHAR s
ENCODING 115
SWIDTH 423 0
DWIDTH 3 0
BBX 3 4 0 0
BITMAP
60
40
60
C0
ENDCHAR
STARTCHAR t
ENCODING 116
SWIDTH 358 0
DWIDTH 3 0
BBX 2 5 1 0
BITMAP
40
C0
80
80
C0
ENDCHAR
STARTCHAR u
ENCODING 117
SWIDTH 553 0
DWIDTH 4 0
BBX 4 4 0 0
BITMAP
50
50
A0
D0
ENDCHAR
STARTCHAR v
ENCODING 118
SWIDTH 510 0
DWIDTH 4 0
BBX 4 4 0 0
BITMAP
50
50
90
E0
ENDCHAR
STARTCHAR w
ENCODING 119
SWIDTH 750 0
DWIDTH 6 0
BBX 6 4 0 0
BITMAP
54
54
A4
D8
ENDCHAR
STARTCHAR x
ENCODING 120
SWIDTH 467 0
DWIDTH 4 0
BBX 4 4 0 0
BITMAP
50
60
40
A0
ENDCHAR
STARTCHAR y
ENCODING 121
SWIDTH 549 0
DWIDTH 4 0
BBX 4 6 0 -2
BITMAP
50
50
B0
E0
20
C0
ENDCHAR
STARTCHAR z
ENCODING 122
SWIDTH 430 0
DWIDTH 3 0
BBX 4 4 0 0
BITMAP
70
20
40
E0
ENDCHAR
STARTCHAR braceleft
ENCODING 123
SWIDTH 424 0
DWIDTH 3 0
BBX 4 9 0 -2
BITMAP
10
20
20
20
40
40
40
80
40
ENDCHAR
STARTCHAR bar
ENCODING 124
SWIDTH 306 0
DWIDTH 2 0
BBX 1 8 1 -1
BITMAP
80
80
80
80
80
80
80
80
ENDCHAR
STARTCHAR braceright
ENCODING 125
SWIDTH 424 0
DWIDTH 3 0
BBX 4 9 -1 -2
BITMAP
10
10
10
10
10
20
20
40
C0
ENDCHAR
STARTCHAR asciitilde
ENCODING 126
SWIDTH 624 0
DWIDTH 5 0
BBX 5 2 0 2
BITMAP
68
B0
ENDCHAR
STARTCHAR nonbreakingspace
ENCODING 160
SWIDTH 293 0
DWIDTH 2 0
BBX 1 1 0 0
BITMAP
00
ENDCHAR
STARTCHAR exclamdown
ENCODING 161
SWIDTH 417 0
DWIDTH 3 0
BBX 3 6 0 -1
BITMAP
20
00
40
40
80
80
ENDCHAR
STARTCHAR cent
ENCODING 162
SWIDTH 487 0
DWIDTH 4 0
BBX 3 6 1 0
BITMAP
20
60
A0
80
C0
80
ENDCHAR
STARTCHAR sterling
ENCODING 163
SWIDTH 665 0
DWIDTH 5 0
BBX 5 6 0 0
BITMAP
18
18
28
70
C0
F8
ENDCHAR
STARTCHAR currency
ENCODING 164
SWIDTH 572 0
DWIDTH 5 0
BBX 5 5 0 1
BITMAP
28
30
50
50
F0
ENDCHAR
STARTCHAR yen
ENCODING 165
SWIDTH 583 0
DWIDTH 5 0
BBX 6 6 0 0
BITMAP
CC
50
30
70
70
40
ENDCHAR
STARTCHAR brokenbar
ENCODING 166
SWIDTH 292 0
DWIDTH 2 0
BBX 1 9 1 -1
BITMAP
80
80
80
80
00
80
80
80
80
ENDCHAR
STARTCHAR section
ENCODING 167
SWIDTH 583 0
DWIDTH 5 0
BBX 5 9 0 -2
BITMAP
10
28
30
60
50
50
60
A0
C0
ENDCHAR
STARTCHAR dieresis
ENCODING 168
SWIDTH 412 0
DWIDTH 3 0
BBX 3 1 0 5
BITMAP
E0
ENDCHAR
STARTCHAR copyright
ENCODING 169
SWIDTH 871 0
DWIDTH 7 0
BBX 6 6 1 0
BITMAP
78
B4
D4
C4
B8
70
ENDCHAR
STARTCHAR ordfeminine
ENCODING 170
SWIDTH 564 0
DWIDTH 5 0
BBX 3 4 1 2
BITMAP
60
A0
A0
E0
ENDCHAR
STARTCHAR guillemotleft
ENCODING 171
SWIDTH 662 0
DWIDTH 5 0
BBX 4 3 1 1
BITMAP
50
E0
F0
ENDCHAR
STARTCHAR logicalnot
ENCODING 172
SWIDTH 729 0
DWIDTH 6 0
BBX 4 3 1 0
BITMAP
F0
10
10
ENDCHAR
STARTCHAR uni00AD
ENCODING 173
SWIDTH 833 0
DWIDTH 7 0
BBX 1 1 0 0
BITMAP
00
ENDCHAR
STARTCHAR registered
ENCODING 174
SWIDTH 742 0
DWIDTH 6 0
BBX 5 5 1 1
BITMAP
70
D8
E8
B0
60
ENDCHAR
STARTCHAR macron
ENCODING 175
SWIDTH 392 0
DWIDTH 3 0
BBX 2 1 1 4
BITMAP
C0
ENDCHAR
STARTCHAR degree
ENCODING 176
SWIDTH 405 0
DWIDTH 3 0
BBX 2 2 1 4
BITMAP
C0
C0
ENDCHAR
STARTCHAR plusminus
ENCODING 177
SWIDTH 617 0
DWIDTH 5 0
BBX 4 5 1 0
BITMAP
40
F0
40
40
F0
ENDCHAR
STARTCHAR twosuperior
ENCODING 178
SWIDTH 458 0
DWIDTH 4 0
BBX 3 4 1 2
BITMAP
E0
A0
40
C0
ENDCHAR
STARTCHAR threesuperior
ENCODING 179
SWIDTH 430 0
DWIDTH 3 0
BBX 3 4 1 2
BITMAP
E0
40
C0
80
ENDCHAR
STARTCHAR acute
ENCODING 180
SWIDTH 322 0
DWIDTH 3 0
BBX 2 2 1 4
BITMAP
40
80
ENDCHAR
STARTCHAR mu
ENCODING 181
SWIDTH 618 0
DWIDTH 5 0
BBX 5 6 0 -2
BITMAP
48
50
B0
D0
80
80
ENDCHAR
STARTCHAR paragraph
ENCODING 182
SWIDTH 739 0
DWIDTH 6 0
BBX 7 7 0 -1
BITMAP
1E
34
34
38
28
E8
D0
ENDCHAR
STARTCHAR periodcentered
ENCODING 183
SWIDTH 353 0
DWIDTH 3 0
BBX 1 1 1 2
BITMAP
80
ENDCHAR
STARTCHAR cedilla
ENCODING 184
SWIDTH 301 0
DWIDTH 2 0
BBX 1 2 1 -2
BITMAP
80
80
ENDCHAR
STARTCHAR onesuperior
ENCODING 185
SWIDTH 403 0
DWIDTH 3 0
BBX 2 4 1 2
BITMAP
40
C0
40
80
ENDCHAR
STARTCHAR ordmasculine
ENCODING 186
SWIDTH 498 0
DWIDTH 4 0
BBX 3 4 1 2
BITMAP
60
A0
A0
C0
ENDCHAR
STARTCHAR guillemotright
ENCODING 187
SWIDTH 665 0
DWIDTH 5 0
BBX 5 3 0 1
BITMAP
50
28
F0
ENDCHAR
STARTCHAR onequarter
ENCODING 188
SWIDTH 988 0
DWIDTH 8 0
BBX 6 7 1 0
BITMAP
08
50
D0
A8
AC
5C
48
ENDCHAR
STARTCHAR onehalf
ENCODING 189
SWIDTH 988 0
DWIDTH 8 0
BBX 6 6 1 0
BITMAP
48
D0
6C
AC
48
5C
ENDCHAR
STARTCHAR threequarters
ENCODING 190
SWIDTH 1007 0
DWIDTH 8 0
BBX 7 7 0 0
BITMAP
04
74
68
AC
56
16
22
ENDCHAR
STARTCHAR questiondown
ENCODING 191
SWIDTH 516 0
DWIDTH 4 0
BBX 4 6 0 -2
BITMAP
30
20
20
C0
A0
C0
ENDCHAR
STARTCHAR Agrave
ENCODING 192
SWIDTH 615 0
DWIDTH 5 0
BBX 6 8 -1 0
BITMAP
08
04
0C
14
14
3C
28
CC
ENDCHAR
STARTCHAR Aacute
ENCODING 193
SWIDTH 615 0
DWIDTH 5 0
BBX 7 8 -1 0
BITMAP
02
04
0C
14
14
3C
28
CC
ENDCHAR
STARTCHAR Acircumflex
ENCODING 194
SWIDTH 615 0
DWIDTH 5 0
BBX 7 8 -1 0
BITMAP
04
0A
0C
14
14
3C
28
CC
ENDCHAR
STARTCHAR Atilde
ENCODING 195
SWIDTH 615 0
DWIDTH 5 0
BBX 7 8 -1 0
BITMAP
0E
0E
0C
14
14
3C
28
CC
ENDCHAR
STARTCHAR Adieresis
ENCODING 196
SWIDTH 615 0
DWIDTH 5 0
BBX 7 8 -1 0
BITMAP
0A
0A
0C
14
14
3C
28
CC
ENDCHAR
STARTCHAR Aring
ENCODING 197
SWIDTH 615 0
DWIDTH 5 0
BBX 7 8 -1 0
BITMAP
04
0A
0C
14
14
3C
28
CC
ENDCHAR
STARTCHAR AE
ENCODING 198
SWIDTH 878 0
DWIDTH 7 0
BBX 9 6 -1 0
BITMAP
0F80
1480
1500
3E00
2800
CE00
ENDCHAR
STARTCHAR Ccedilla
ENCODING 199
SWIDTH 533 0
DWIDTH 4 0
BBX 5 8 0 -2
BITMAP
38
48
50
80
80
70
40
40
ENDCHAR
STARTCHAR Egrave
ENCODING 200
SWIDTH 509 0
DWIDTH 4 0
BBX 5 8 0 0
BITMAP
10
10
38
48
50
60
80
60
ENDCHAR
STARTCHAR Eacute
ENCODING 201
SWIDTH 509 0
DWIDTH 4 0
BBX 5 8 0 0
BITMAP
08
10
38
48
50
60
80
60
ENDCHAR
STARTCHAR Ecircumflex
ENCODING 202
SWIDTH 509 0
DWIDTH 4 0
BBX 5 8 0 0
BITMAP
10
28
38
48
50
60
80
60
ENDCHAR
STARTCHAR Edieresis
ENCODING 203
SWIDTH 509 0
DWIDTH 4 0
BBX 5 8 0 0
BITMAP
28
28
38
48
50
60
80
60
ENDCHAR
STARTCHAR Igrave
ENCODING 204
SWIDTH 327 0
DWIDTH 3 0
BBX 3 8 0 0
BITMAP
40
20
60
20
40
40
40
80
ENDCHAR
STARTCHAR Iacute
ENCODING 205
SWIDTH 327 0
DWIDTH 3 0
BBX 4 8 0 0
BITMAP
10
20
60
20
40
40
40
80
ENDCHAR
STARTCHAR Icircumflex
ENCODING 206
SWIDTH 327 0
DWIDTH 3 0
BBX 4 8 0 0
BITMAP
20
50
60
20
40
40
40
80
ENDCHAR
STARTCHAR Idieresis
ENCODING 207
SWIDTH 327 0
DWIDTH 3 0
BBX 4 8 0 0
BITMAP
50
50
60
20
40
40
40
80
ENDCHAR
STARTCHAR Eth
ENCODING 208
SWIDTH 630 0
DWIDTH 5 0
BBX 5 6 0 0
BITMAP
70
28
E8
48
90
E0
ENDCHAR
STARTCHAR Ntilde
ENCODING 209
SWIDTH 708 0
DWIDTH 6 0
BBX 6 8 0 0
BITMAP
0C
14
24
64
64
98
98
90
ENDCHAR
STARTCHAR Ograve
ENCODING 210
SWIDTH 655 0
DWIDTH 5 0
BBX 5 8 0 0
BITMAP
10
08
38
48
48
48
90
60
ENDCHAR
STARTCHAR Oacute
ENCODING 211
SWIDTH 655 0
DWIDTH 5 0
BBX 6 8 0 0
BITMAP
04
08
38
48
48
48
90
60
ENDCHAR
STARTCHAR Ocircumflex
ENCODING 212
SWIDTH 655 0
DWIDTH 5 0
BBX 6 8 0 0
BITMAP
08
14
38
48
48
48
90
60
ENDCHAR
STARTCHAR Otilde
ENCODING 213
SWIDTH 655 0
DWIDTH 5 0
BBX 6 8 0 0
BITMAP
1C
18
38
48
48
48
90
60
ENDCHAR
STARTCHAR Odieresis
ENCODING 214
SWIDTH 655 0
DWIDTH 5 0
BBX 6 8 0 0
BITMAP
14
14
38
48
48
48
90
60
ENDCHAR
STARTCHAR multiply
ENCODING 215
SWIDTH 573 0
DWIDTH 5 0
BBX 3 3 1 1
BITMAP
A0
40
A0
ENDCHAR
STARTCHAR Oslash
ENCODING 216
SWIDTH 655 0
DWIDTH 5 0
BBX 5 8 1 -1
BITMAP
08
30
68
A8
D0
90
E0
80
ENDCHAR
STARTCHAR Ugrave
ENCODING 217
SWIDTH 624 0
DWIDTH 5 0
BBX 6 8 0 0
BITMAP
10
08
64
48
48
50
B0
D8
ENDCHAR
STARTCHAR Uacute
ENCODING 218
SWIDTH 624 0
DWIDTH 5 0
BBX 6 8 0 0
BITMAP
08
10
64
48
48
50
B0
D8
ENDCHAR
STARTCHAR Ucircumflex
ENCODING 219
SWIDTH 624 0
DWIDTH 5 0
BBX 6 8 0 0
BITMAP
18
28
64
48
48
50
B0
D8
ENDCHAR
STARTCHAR Udieresis
ENCODING 220
SWIDTH 624 0
DWIDTH 5 0
BBX 6 8 0 0
BITMAP
18
28
64
48
48
50
B0
D8
ENDCHAR
STARTCHAR Yacute
ENCODING 221
SWIDTH 580 0
DWIDTH 5 0
BBX 6 10 0 -2
BITMAP
08
10
64
48
48
50
B0
D0
20
C0
ENDCHAR
STARTCHAR Thorn
ENCODING 222
SWIDTH 527 0
DWIDTH 4 0
BBX 4 6 0 0
BITMAP
40
70
50
50
A0
80
ENDCHAR
STARTCHAR germandbls
ENCODING 223
SWIDTH 520 0
DWIDTH 4 0
BBX 4 8 0 -1
BITMAP
30
50
50
60
60
90
F0
80
ENDCHAR
STARTCHAR agrave
ENCODING 224
SWIDTH 541 0
DWIDTH 4 0
BBX 4 6 0 0
BITMAP
20
10
70
50
A0
D0
ENDCHAR
STARTCHAR aacute
ENCODING 225
SWIDTH 541 0
DWIDTH 4 0
BBX 4 6 0 0
BITMAP
10
20
70
50
A0
D0
ENDCHAR
STARTCHAR acircumflex
ENCODING 226
SWIDTH 541 0
DWIDTH 4 0
BBX 4 6 0 0
BITMAP
30
50
70
50
A0
D0
ENDCHAR
STARTCHAR atilde
ENCODING 227
SWIDTH 541 0
DWIDTH 4 0
BBX 5 6 0 0
BITMAP
38
00
70
50
A0
D0
ENDCHAR
STARTCHAR adieresis
ENCODING 228
SWIDTH 541 0
DWIDTH 4 0
BBX 5 6 0 0
BITMAP
38
00
70
50
A0
D0
ENDCHAR
STARTCHAR aring
ENCODING 229
SWIDTH 541 0
DWIDTH 4 0
BBX 4 6 0 0
BITMAP
30
30
70
50
A0
D0
ENDCHAR
STARTCHAR ae
ENCODING 230
SWIDTH 769 0
DWIDTH 6 0
BBX 6 4 0 0
BITMAP
7C
54
B8
DC
ENDCHAR
STARTCHAR ccedilla
ENCODING 231
SWIDTH 465 0
DWIDTH 4 0
BBX 4 6 0 -2
BITMAP
70
70
80
E0
40
40
ENDCHAR
STARTCHAR egrave
ENCODING 232
SWIDTH 471 0
DWIDTH 4 0
BBX 4 6 0 0
BITMAP
20
20
70
70
C0
60
ENDCHAR
STARTCHAR eacute
ENCODING 233
SWIDTH 471 0
DWIDTH 4 0
BBX 4 6 0 0
BITMAP
10
20
70
70
C0
60
ENDCHAR
STARTCHAR ecircumflex
ENCODING 234
SWIDTH 471 0
DWIDTH 4 0
BBX 4 6 0 0
BITMAP
30
50
70
70
C0
60
ENDCHAR
STARTCHAR edieresis
ENCODING 235
SWIDTH 471 0
DWIDTH 4 0
BBX 4 6 0 0
BITMAP
50
00
70
70
80
60
ENDCHAR
STARTCHAR igrave
ENCODING 236
SWIDTH 286 0
DWIDTH 2 0
BBX 2 6 0 0
BITMAP
40
40
40
40
80
C0
ENDCHAR
STARTCHAR iacute
ENCODING 237
SWIDTH 286 0
DWIDTH 2 0
BBX 3 6 0 0
BITMAP
20
40
40
40
80
C0
ENDCHAR
STARTCHAR icircumflex
ENCODING 238
SWIDTH 286 0
DWIDTH 2 0
BBX 3 6 0 0
BITMAP
60
A0
40
40
80
C0
ENDCHAR
STARTCHAR idieresis
ENCODING 239
SWIDTH 286 0
DWIDTH 2 0
BBX 3 6 0 0
BITMAP
E0
00
40
40
80
C0
ENDCHAR
STARTCHAR eth
ENCODING 240
SWIDTH 524 0
DWIDTH 4 0
BBX 5 7 0 0
BITMAP
10
18
30
70
50
A0
E0
ENDCHAR
STARTCHAR ntilde
ENCODING 241
SWIDTH 561 0
DWIDTH 4 0
BBX 5 6 0 0
BITMAP
38
00
70
50
90
B0
ENDCHAR
STARTCHAR ograve
ENCODING 242
SWIDTH 514 0
DWIDTH 4 0
BBX 4 6 0 0
BITMAP
20
10
70
50
90
E0
ENDCHAR
STARTCHAR oacute
ENCODING 243
SWIDTH 514 0
DWIDTH 4 0
BBX 4 6 0 0
BITMAP
10
20
50
50
90
E0
ENDCHAR
STARTCHAR ocircumflex
ENCODING 244
SWIDTH 514 0
DWIDTH 4 0
BBX 4 6 0 0
BITMAP
30
50
70
50
90
E0
ENDCHAR
STARTCHAR otilde
ENCODING 245
SWIDTH 514 0
DWIDTH 4 0
BBX 5 6 0 0
BITMAP
38
00
70
50
90
E0
ENDCHAR
STARTCHAR odieresis
ENCODING 246
SWIDTH 514 0
DWIDTH 4 0
BBX 5 6 0 0
BITMAP
38
00
70
50
90
E0
ENDCHAR
STARTCHAR divide
ENCODING 247
SWIDTH 617 0
DWIDTH 5 0
BBX 4 3 1 1
BITMAP
40
F0
40
ENDCHAR
STARTCHAR oslash
ENCODING 248
SWIDTH 514 0
DWIDTH 4 0
BBX 4 6 0 -1
BITMAP
10
70
70
D0
E0
80
ENDCHAR
STARTCHAR ugrave
ENCODING 249
SWIDTH 553 0
DWIDTH 4 0
BBX 4 6 0 0
BITMAP
20
10
50
50
A0
D0
ENDCHAR
STARTCHAR uacute
ENCODING 250
SWIDTH 553 0
DWIDTH 4 0
BBX 4 6 0 0
BITMAP
10
20
50
50
A0
D0
ENDCHAR
STARTCHAR ucircumflex
ENCODING 251
SWIDTH 553 0
DWIDTH 4 0
BBX 5 6 0 0
BITMAP
10
28
50
50
A0
D0
ENDCHAR
STARTCHAR udieresis
ENCODING 252
SWIDTH 553 0
DWIDTH 4 0
BBX 5 6 0 0
BITMAP
28
00
50
50
A0
D0
ENDCHAR
STARTCHAR yacute
ENCODING 253
SWIDTH 549 0
DWIDTH 4 0
BBX 4 8 0 -2
BITMAP
10
20
50
50
B0
E0
20
C0
ENDCHAR
STARTCHAR thorn
ENCODING 254
SWIDTH 552 0
DWIDTH 4 0
BBX 5 9 -1 -2
BITMAP
10
10
20
38
28
48
70
40
80
ENDCHAR
STARTCHAR ydieresis
ENCODING 255
SWIDTH 549 0
DWIDTH 4 0
BBX 5 8 0 -2
BITMAP
38
00
50
50
B0
E0
20
C0
ENDCHAR
STARTCHAR Amacron
ENCODING 256
SWIDTH 615 0
DWIDTH 5 0
BBX 7 7 -1 0
BITMAP
0E
0C
14
14
3C
28
CC
ENDCHAR
STARTCHAR amacron
ENCODING 257
SWIDTH 543 0
DWIDTH 4 0
BBX 4 5 0 0
BITMAP
30
70
50
A0
D0
ENDCHAR
STARTCHAR Abreve
ENCODING 258
SWIDTH 615 0
DWIDTH 5 0
BBX 7 8 -1 0
BITMAP
0A
04
0C
14
14
3C
28
CC
ENDCHAR
STARTCHAR abreve
ENCODING 259
SWIDTH 543 0
DWIDTH 4 0
BBX 5 6 0 0
BITMAP
28
30
70
50
A0
D0
ENDCHAR
STARTCHAR Aogonek
ENCODING 260
SWIDTH 615 0
DWIDTH 5 0
BBX 6 8 -1 -2
BITMAP
0C
14
14
3C
28
CC
08
18
ENDCHAR
STARTCHAR aogonek
ENCODING 261
SWIDTH 541 0
DWIDTH 4 0
BBX 4 6 0 -2
BITMAP
70
50
A0
D0
20
30
ENDCHAR
STARTCHAR Cacute
ENCODING 262
SWIDTH 533 0
DWIDTH 4 0
BBX 5 8 0 0
BITMAP
08
08
38
48
50
80
80
70
ENDCHAR
STARTCHAR cacute
ENCODING 263
SWIDTH 468 0
DWIDTH 4 0
BBX 4 6 0 0
BITMAP
10
20
70
70
80
E0
ENDCHAR
STARTCHAR Ccircumflex
ENCODING 264
SWIDTH 533 0
DWIDTH 4 0
BBX 6 8 0 0
BITMAP
08
14
38
48
50
80
80
70
ENDCHAR
STARTCHAR ccircumflex
ENCODING 265
SWIDTH 468 0
DWIDTH 4 0
BBX 4 6 0 0
BITMAP
30
50
70
70
80
E0
ENDCHAR
STARTCHAR Cdotaccent
ENCODING 266
SWIDTH 533 0
DWIDTH 4 0
BBX 5 8 0 0
BITMAP
10
18
38
48
50
80
80
70
ENDCHAR
STARTCHAR cdotaccent
ENCODING 267
SWIDTH 468 0
DWIDTH 4 0
BBX 4 6 0 0
BITMAP
30
00
70
70
80
E0
ENDCHAR
STARTCHAR Ccaron
ENCODING 268
SWIDTH 533 0
DWIDTH 4 0
BBX 6 8 0 0
BITMAP
14
08
38
48
50
80
80
70
ENDCHAR
STARTCHAR ccaron
ENCODING 269
SWIDTH 468 0
DWIDTH 4 0
BBX 5 6 0 0
BITMAP
28
30
70
70
80
E0
ENDCHAR
STARTCHAR Dcaron
ENCODING 270
SWIDTH 630 0
DWIDTH 5 0
BBX 5 8 0 0
BITMAP
08
10
78
28
48
48
90
E0
ENDCHAR
STARTCHAR dcaron
ENCODING 271
SWIDTH 557 0
DWIDTH 4 0
BBX 7 7 0 0
BITMAP
0A
0A
0C
30
50
B0
D0
ENDCHAR
STARTCHAR Dcroat
ENCODING 272
SWIDTH 630 0
DWIDTH 5 0
BBX 5 6 0 0
BITMAP
70
28
E8
48
90
E0
ENDCHAR
STARTCHAR dcroat
ENCODING 273
SWIDTH 557 0
DWIDTH 4 0
BBX 5 7 0 0
BITMAP
08
18
08
30
50
B0
D0
ENDCHAR
STARTCHAR Emacron
ENCODING 274
SWIDTH 509 0
DWIDTH 4 0
BBX 5 7 0 0
BITMAP
38
38
48
50
60
80
60
ENDCHAR
STARTCHAR emacron
ENCODING 275
SWIDTH 471 0
DWIDTH 4 0
BBX 4 5 0 0
BITMAP
70
70
70
C0
60
ENDCHAR
STARTCHAR Ebreve
ENCODING 276
SWIDTH 509 0
DWIDTH 4 0
BBX 5 8 0 0
BITMAP
28
10
38
48
50
60
80
60
ENDCHAR
STARTCHAR ebreve
ENCODING 277
SWIDTH 471 0
DWIDTH 4 0
BBX 4 6 0 0
BITMAP
30
20
70
70
C0
60
ENDCHAR
STARTCHAR Edotaccent
ENCODING 278
SWIDTH 509 0
DWIDTH 4 0
BBX 5 8 0 0
BITMAP
10
10
38
48
50
60
80
60
ENDCHAR
STARTCHAR edotaccent
ENCODING 279
SWIDTH 471 0
DWIDTH 4 0
BBX 4 6 0 0
BITMAP
20
00
70
70
C0
60
ENDCHAR
STARTCHAR Eogonek
ENCODING 280
SWIDTH 509 0
DWIDTH 4 0
BBX 5 8 0 -2
BITMAP
38
48
50
60
80
60
40
40
ENDCHAR
STARTCHAR eogonek
ENCODING 281
SWIDTH 471 0
DWIDTH 4 0
BBX 4 6 0 -2
BITMAP
70
70
C0
60
40
40
ENDCHAR
STARTCHAR Ecaron
ENCODING 282
SWIDTH 509 0
DWIDTH 4 0
BBX 5 8 0 0
BITMAP
28
10
38
48
50
60
80
60
ENDCHAR
STARTCHAR ecaron
ENCODING 283
SWIDTH 471 0
DWIDTH 4 0
BBX 5 6 0 0
BITMAP
38
20
70
70
C0
60
ENDCHAR
STARTCHAR Gcircumflex
ENCODING 284
SWIDTH 598 0
DWIDTH 5 0
BBX 5 8 0 0
BITMAP
08
18
38
48
50
98
90
60
ENDCHAR
STARTCHAR gcircumflex
ENCODING 285
SWIDTH 526 0
DWIDTH 4 0
BBX 4 8 0 -2
BITMAP
30
50
70
50
B0
E0
20
40
ENDCHAR
STARTCHAR Gbreve
ENCODING 286
SWIDTH 598 0
DWIDTH 5 0
BBX 6 8 0 0
BITMAP
14
18
38
48
50
98
90
60
ENDCHAR
STARTCHAR gbreve
ENCODING 287
SWIDTH 526 0
DWIDTH 4 0
BBX 5 8 0 -2
BITMAP
28
30
50
50
B0
E0
20
40
ENDCHAR
STARTCHAR Gdotaccent
ENCODING 288
SWIDTH 598 0
DWIDTH 5 0
BBX 5 8 0 0
BITMAP
10
18
38
48
50
98
90
60
ENDCHAR
STARTCHAR gdotaccent
ENCODING 289
SWIDTH 526 0
DWIDTH 4 0
BBX 4 8 0 -2
BITMAP
10
00
70
50
B0
E0
20
40
ENDCHAR
STARTCHAR Gcommaaccent
ENCODING 290
SWIDTH 598 0
DWIDTH 5 0
BBX 5 8 0 -2
BITMAP
38
48
50
98
90
60
40
40
ENDCHAR
STARTCHAR gcommaaccent
ENCODING 291
SWIDTH 526 0
DWIDTH 4 0
BBX 4 8 0 -2
BITMAP
10
00
70
50
B0
E0
20
40
ENDCHAR
STARTCHAR Hcircumflex
ENCODING 292
SWIDTH 668 0
DWIDTH 5 0
BBX 6 8 0 0
BITMAP
18
28
64
28
78
48
90
98
ENDCHAR
STARTCHAR hcircumflex
ENCODING 293
SWIDTH 555 0
DWIDTH 4 0
BBX 4 8 0 0
BITMAP
20
50
20
40
70
50
A0
B0
ENDCHAR
STARTCHAR Hbar
ENCODING 294
SWIDTH 668 0
DWIDTH 5 0
BBX 6 6 0 0
BITMAP
64
7C
78
48
90
98
ENDCHAR
STARTCHAR hbar
ENCODING 295
SWIDTH 555 0
DWIDTH 4 0
BBX 4 7 0 0
BITMAP
20
70
40
70
50
90
B0
ENDCHAR
STARTCHAR Itilde
ENCODING 296
SWIDTH 327 0
DWIDTH 3 0
BBX 4 8 0 0
BITMAP
30
70
60
20
40
40
40
80
ENDCHAR
STARTCHAR itilde
ENCODING 297
SWIDTH 286 0
DWIDTH 2 0
BBX 3 6 0 0
BITMAP
E0
00
40
40
80
C0
ENDCHAR
STARTCHAR Imacron
ENCODING 298
SWIDTH 327 0
DWIDTH 3 0
BBX 4 7 0 0
BITMAP
70
60
20
40
40
40
80
ENDCHAR
STARTCHAR imacron
ENCODING 299
SWIDTH 286 0
DWIDTH 2 0
BBX 3 5 0 0
BITMAP
E0
40
40
80
C0
ENDCHAR
STARTCHAR Ibreve
ENCODING 300
SWIDTH 327 0
DWIDTH 3 0
BBX 4 8 0 0
BITMAP
50
20
60
20
40
40
40
80
ENDCHAR
STARTCHAR ibreve
ENCODING 301
SWIDTH 286 0
DWIDTH 2 0
BBX 3 6 0 0
BITMAP
60
60
40
40
80
C0
ENDCHAR
STARTCHAR Iogonek
ENCODING 302
SWIDTH 327 0
DWIDTH 3 0
BBX 4 8 -1 -2
BITMAP
30
10
20
20
20
40
80
80
ENDCHAR
STARTCHAR iogonek
ENCODING 303
SWIDTH 297 0
DWIDTH 2 0
BBX 3 8 0 -2
BITMAP
60
00
40
40
80
C0
80
80
ENDCHAR
STARTCHAR Idotaccent
ENCODING 304
SWIDTH 327 0
DWIDTH 3 0
BBX 3 8 0 0
BITMAP
20
20
60
20
40
40
40
80
ENDCHAR
STARTCHAR dotlessi
ENCODING 305
SWIDTH 286 0
DWIDTH 2 0
BBX 2 4 0 0
BITMAP
40
40
80
C0
ENDCHAR
STARTCHAR IJ
ENCODING 306
SWIDTH 720 0
DWIDTH 6 0
BBX 6 8 0 -2
BITMAP
7C
24
44
48
48
90
10
60
ENDCHAR
STARTCHAR ij
ENCODING 307
SWIDTH 567 0
DWIDTH 5 0
BBX 5 8 0 -2
BITMAP
78
00
50
50
90
E0
20
40
ENDCHAR
STARTCHAR Jcircumflex
ENCODING 308
SWIDTH 393 0
DWIDTH 3 0
BBX 5 10 -1 -2
BITMAP
08
38
70
10
10
10
20
20
40
80
ENDCHAR
STARTCHAR jcircumflex
ENCODING 309
SWIDTH 282 0
DWIDTH 2 0
BBX 4 8 -1 -2
BITMAP
30
50
20
20
20
40
40
80
ENDCHAR
STARTCHAR Kcommaaccent
ENCODING 310
SWIDTH 616 0
DWIDTH 5 0
BBX 5 8 0 -2
BITMAP
68
48
50
60
B0
98
40
40
ENDCHAR
STARTCHAR kcommaaccent
ENCODING 311
SWIDTH 497 0
DWIDTH 4 0
BBX 4 9 0 -2
BITMAP
20
20
40
50
60
C0
B0
40
C0
ENDCHAR
STARTCHAR kgreenlandic
ENCODING 312
SWIDTH 497 0
DWIDTH 4 0
BBX 4 4 0 0
BITMAP
50
60
C0
B0
ENDCHAR
STARTCHAR Lacute
ENCODING 313
SWIDTH 517 0
DWIDTH 4 0
BBX 5 8 0 0
BITMAP
08
10
30
28
50
40
80
F0
ENDCHAR
STARTCHAR lacute
ENCODING 314
SWIDTH 279 0
DWIDTH 2 0
BBX 4 8 0 0
BITMAP
10
20
20
40
40
40
80
C0
ENDCHAR
STARTCHAR Lcommaaccent
ENCODING 315
SWIDTH 517 0
DWIDTH 4 0
BBX 5 8 0 -2
BITMAP
30
28
50
40
80
F0
40
80
ENDCHAR
STARTCHAR lcommaaccent
ENCODING 316
SWIDTH 279 0
DWIDTH 2 0
BBX 3 9 0 -2
BITMAP
20
20
40
40
40
80
C0
80
80
ENDCHAR
STARTCHAR Lcaron
ENCODING 317
SWIDTH 517 0
DWIDTH 4 0
BBX 6 8 0 0
BITMAP
04
04
38
28
50
40
80
F0
ENDCHAR
STARTCHAR lcaron
ENCODING 318
SWIDTH 467 0
DWIDTH 4 0
BBX 4 7 0 0
BITMAP
30
30
50
40
40
80
C0
ENDCHAR
STARTCHAR Ldot
ENCODING 319
SWIDTH 668 0
DWIDTH 5 0
BBX 5 6 0 0
BITMAP
30
28
50
48
80
F0
ENDCHAR
STARTCHAR ldot
ENCODING 320
SWIDTH 489 0
DWIDTH 4 0
BBX 4 7 0 0
BITMAP
20
20
40
50
50
80
C0
ENDCHAR
STARTCHAR Lslash
ENCODING 321
SWIDTH 517 0
DWIDTH 4 0
BBX 5 6 0 0
BITMAP
30
28
50
60
80
F0
ENDCHAR
STARTCHAR lslash
ENCODING 322
SWIDTH 279 0
DWIDTH 2 0
BBX 4 7 0 0
BITMAP
40
30
40
40
40
80
C0
ENDCHAR
STARTCHAR Nacute
ENCODING 323
SWIDTH 708 0
DWIDTH 6 0
BBX 6 8 0 0
BITMAP
04
08
24
64
64
98
98
90
ENDCHAR
STARTCHAR nacute
ENCODING 324
SWIDTH 561 0
DWIDTH 4 0
BBX 4 6 0 0
BITMAP
10
20
70
50
90
B0
ENDCHAR
STARTCHAR Ncommaaccent
ENCODING 325
SWIDTH 708 0
DWIDTH 6 0
BBX 6 8 0 -2
BITMAP
24
64
64
98
98
90
20
20
ENDCHAR
STARTCHAR ncommaaccent
ENCODING 326
SWIDTH 561 0
DWIDTH 4 0
BBX 4 6 0 -2
BITMAP
70
50
90
B0
40
40
ENDCHAR
STARTCHAR Ncaron
ENCODING 327
SWIDTH 708 0
DWIDTH 6 0
BBX 6 8 0 0
BITMAP
04
08
24
64
64
98
98
90
ENDCHAR
STARTCHAR ncaron
ENCODING 328
SWIDTH 561 0
DWIDTH 4 0
BBX 5 6 0 0
BITMAP
28
30
70
50
90
B0
ENDCHAR
STARTCHAR Eng
ENCODING 330
SWIDTH 698 0
DWIDTH 6 0
BBX 6 8 0 -2
BITMAP
24
64
64
A4
98
90
10
60
ENDCHAR
STARTCHAR eng
ENCODING 331
SWIDTH 561 0
DWIDTH 4 0
BBX 4 6 0 -2
BITMAP
70
50
90
A0
20
40
ENDCHAR
STARTCHAR Omacron
ENCODING 332
SWIDTH 655 0
DWIDTH 5 0
BBX 6 7 0 0
BITMAP
1C
38
48
48
48
90
60
ENDCHAR
STARTCHAR omacron
ENCODING 333
SWIDTH 514 0
DWIDTH 4 0
BBX 4 5 0 0
BITMAP
30
50
50
90
E0
ENDCHAR
STARTCHAR Obreve
ENCODING 334
SWIDTH 655 0
DWIDTH 5 0
BBX 6 8 0 0
BITMAP
14
08
38
48
48
48
90
60
ENDCHAR
STARTCHAR obreve
ENCODING 335
SWIDTH 514 0
DWIDTH 4 0
BBX 5 6 0 0
BITMAP
28
30
50
50
90
E0
ENDCHAR
STARTCHAR Ohungarumlaut
ENCODING 336
SWIDTH 655 0
DWIDTH 5 0
BBX 6 8 0 0
BITMAP
0C
18
38
48
48
48
90
60
ENDCHAR
STARTCHAR ohungarumlaut
ENCODING 337
SWIDTH 514 0
DWIDTH 4 0
BBX 5 6 0 0
BITMAP
28
50
70
50
90
E0
ENDCHAR
STARTCHAR OE
ENCODING 338
SWIDTH 900 0
DWIDTH 7 0
BBX 7 6 1 0
BITMAP
3E
4A
92
8C
90
FC
ENDCHAR
STARTCHAR oe
ENCODING 339
SWIDTH 777 0
DWIDTH 6 0
BBX 6 4 0 0
BITMAP
3C
54
98
7C
ENDCHAR
STARTCHAR Racute
ENCODING 340
SWIDTH 623 0
DWIDTH 5 0
BBX 5 8 0 0
BITMAP
08
10
78
28
48
70
50
98
ENDCHAR
STARTCHAR racute
ENCODING 341
SWIDTH 407 0
DWIDTH 3 0
BBX 4 6 0 0
BITMAP
10
20
70
40
80
80
ENDCHAR
STARTCHAR Rcommaaccent
ENCODING 342
SWIDTH 623 0
DWIDTH 5 0
BBX 5 8 0 -2
BITMAP
78
28
48
70
50
98
40
40
ENDCHAR
STARTCHAR rcommaaccent
ENCODING 343
SWIDTH 407 0
DWIDTH 3 0
BBX 5 6 -1 -2
BITMAP
38
20
40
40
40
C0
ENDCHAR
STARTCHAR Rcaron
ENCODING 344
SWIDTH 623 0
DWIDTH 5 0
BBX 5 8 0 0
BITMAP
28
10
78
28
48
70
50
98
ENDCHAR
STARTCHAR rcaron
ENCODING 345
SWIDTH 407 0
DWIDTH 3 0
BBX 4 6 0 0
BITMAP
30
20
70
40
80
80
ENDCHAR
STARTCHAR Sacute
ENCODING 346
SWIDTH 474 0
DWIDTH 4 0
BBX 5 8 0 0
BITMAP
08
10
30
50
50
40
A0
E0
ENDCHAR
STARTCHAR sacute
ENCODING 347
SWIDTH 423 0
DWIDTH 3 0
BBX 4 6 0 0
BITMAP
10
20
60
40
60
C0
ENDCHAR
STARTCHAR Scircumflex
ENCODING 348
SWIDTH 474 0
DWIDTH 4 0
BBX 5 8 0 0
BITMAP
10
28
30
50
50
40
A0
E0
ENDCHAR
STARTCHAR scircumflex
ENCODING 349
SWIDTH 423 0
DWIDTH 3 0
BBX 4 6 0 0
BITMAP
30
50
60
40
60
C0
ENDCHAR
STARTCHAR Scedilla
ENCODING 350
SWIDTH 474 0
DWIDTH 4 0
BBX 4 8 0 -2
BITMAP
30
50
50
60
A0
C0
40
80
ENDCHAR
STARTCHAR scedilla
ENCODING 351
SWIDTH 423 0
DWIDTH 3 0
BBX 3 6 0 -2
BITMAP
60
40
60
C0
40
80
ENDCHAR
STARTCHAR Scaron
ENCODING 352
SWIDTH 474 0
DWIDTH 4 0
BBX 5 8 0 0
BITMAP
28
10
30
50
50
40
A0
E0
ENDCHAR
STARTCHAR scaron
ENCODING 353
SWIDTH 423 0
DWIDTH 3 0
BBX 4 6 0 0
BITMAP
30
20
60
40
60
C0
ENDCHAR
STARTCHAR Tcommaaccent
ENCODING 354
SWIDTH 471 0
DWIDTH 4 0
BBX 5 8 0 -2
BITMAP
78
20
20
20
40
C0
40
C0
ENDCHAR
STARTCHAR tcommaaccent
ENCODING 355
SWIDTH 358 0
DWIDTH 3 0
BBX 3 7 0 -2
BITMAP
40
60
40
80
C0
80
80
ENDCHAR
STARTCHAR Tcaron
ENCODING 356
SWIDTH 471 0
DWIDTH 4 0
BBX 5 8 0 0
BITMAP
08
10
78
20
20
20
40
C0
ENDCHAR
STARTCHAR tcaron
ENCODING 357
SWIDTH 497 0
DWIDTH 4 0
BBX 4 7 1 0
BITMAP
10
10
60
C0
80
80
C0
ENDCHAR
STARTCHAR Tbar
ENCODING 358
SWIDTH 471 0
DWIDTH 4 0
BBX 5 6 0 0
BITMAP
78
20
70
20
40
C0
ENDCHAR
STARTCHAR tbar
ENCODING 359
SWIDTH 358 0
DWIDTH 3 0
BBX 3 5 0 0
BITMAP
40
60
E0
80
C0
ENDCHAR
STARTCHAR Utilde
ENCODING 360
SWIDTH 624 0
DWIDTH 5 0
BBX 6 8 0 0
BITMAP
14
28
64
48
48
50
B0
D8
ENDCHAR
STARTCHAR utilde
ENCODING 361
SWIDTH 553 0
DWIDTH 4 0
BBX 5 6 0 0
BITMAP
38
00
50
50
A0
D0
ENDCHAR
STARTCHAR Umacron
ENCODING 362
SWIDTH 624 0
DWIDTH 5 0
BBX 6 7 0 0
BITMAP
38
64
48
48
50
B0
D8
ENDCHAR
STARTCHAR umacron
ENCODING 363
SWIDTH 553 0
DWIDTH 4 0
BBX 5 5 0 0
BITMAP
38
50
50
A0
D0
ENDCHAR
STARTCHAR Ubreve
ENCODING 364
SWIDTH 624 0
DWIDTH 5 0
BBX 6 8 0 0
BITMAP
14
18
64
48
48
50
B0
D8
ENDCHAR
STARTCHAR ubreve
ENCODING 365
SWIDTH 553 0
DWIDTH 4 0
BBX 5 6 0 0
BITMAP
28
30
50
50
A0
D0
ENDCHAR
STARTCHAR Uring
ENCODING 366
SWIDTH 624 0
DWIDTH 5 0
BBX 6 8 0 0
BITMAP
18
18
64
48
48
50
B0
D8
ENDCHAR
STARTCHAR uring
ENCODING 367
SWIDTH 553 0
DWIDTH 4 0
BBX 4 6 0 0
BITMAP
30
30
50
50
A0
D0
ENDCHAR
STARTCHAR Uhungarumlaut
ENCODING 368
SWIDTH 624 0
DWIDTH 5 0
BBX 6 8 0 0
BITMAP
14
28
64
48
48
50
B0
D8
ENDCHAR
STARTCHAR uhungarumlaut
ENCODING 369
SWIDTH 553 0
DWIDTH 4 0
BBX 5 6 0 0
BITMAP
28
50
50
50
A0
D0
ENDCHAR
STARTCHAR Uogonek
ENCODING 370
SWIDTH 684 0
DWIDTH 5 0
BBX 6 8 0 -2
BITMAP
24
28
48
58
B0
D8
10
10
ENDCHAR
STARTCHAR uogonek
ENCODING 371
SWIDTH 553 0
DWIDTH 4 0
BBX 4 6 0 -2
BITMAP
50
50
A0
D0
20
20
ENDCHAR
STARTCHAR Wcircumflex
ENCODING 372
SWIDTH 941 0
DWIDTH 8 0
BBX 8 8 0 0
BITMAP
04
0A
61
25
59
6A
B2
4C
ENDCHAR
STARTCHAR wcircumflex
ENCODING 373
SWIDTH 750 0
DWIDTH 6 0
BBX 6 6 0 0
BITMAP
18
28
54
54
A4
D8
ENDCHAR
STARTCHAR Ycircumflex
ENCODING 374
SWIDTH 580 0
DWIDTH 5 0
BBX 6 10 0 -2
BITMAP
18
28
64
48
48
50
B0
D0
20
C0
ENDCHAR
STARTCHAR ycircumflex
ENCODING 375
SWIDTH 549 0
DWIDTH 4 0
BBX 4 8 0 -2
BITMAP
30
50
50
50
B0
E0
20
C0
ENDCHAR
STARTCHAR Ydieresis
ENCODING 376
SWIDTH 580 0
DWIDTH 5 0
BBX 6 10 0 -2
BITMAP
38
28
64
48
48
50
B0
D0
20
C0
ENDCHAR
STARTCHAR Zacute
ENCODING 377
SWIDTH 501 0
DWIDTH 4 0
BBX 5 8 0 0
BITMAP
08
10
78
10
20
40
80
F0
ENDCHAR
STARTCHAR zacute
ENCODING 378
SWIDTH 430 0
DWIDTH 3 0
BBX 4 6 0 0
BITMAP
10
20
70
20
40
E0
ENDCHAR
STARTCHAR Zdotaccent
ENCODING 379
SWIDTH 501 0
DWIDTH 4 0
BBX 5 8 0 0
BITMAP
10
30
78
10
20
40
80
F0
ENDCHAR
STARTCHAR zdotaccent
ENCODING 380
SWIDTH 430 0
DWIDTH 3 0
BBX 4 6 0 0
BITMAP
20
00
70
20
40
E0
ENDCHAR
STARTCHAR Zcaron
ENCODING 381
SWIDTH 501 0
DWIDTH 4 0
BBX 5 8 0 0
BITMAP
28
10
78
10
20
40
80
F0
ENDCHAR
STARTCHAR zcaron
ENCODING 382
SWIDTH 430 0
DWIDTH 3 0
BBX 4 6 0 0
BITMAP
30
20
70
20
40
E0
ENDCHAR
STARTCHAR florin
ENCODING 402
SWIDTH 466 0
DWIDTH 4 0
BBX 7 9 -2 -2
BITMAP
04
0A
0C
1C
10
10
10
20
E0
ENDCHAR
STARTCHAR AEacute
ENCODING 508
SWIDTH 878 0
DWIDTH 7 0
BBX 9 8 -1 0
BITMAP
0100
0200
0F80
1480
1500
3E00
2800
CE00
ENDCHAR
STARTCHAR aeacute
ENCODING 509
SWIDTH 770 0
DWIDTH 6 0
BBX 6 6 0 0
BITMAP
08
10
7C
54
B8
DC
ENDCHAR
STARTCHAR Scommaaccent
ENCODING 536
SWIDTH 474 0
DWIDTH 4 0
BBX 4 8 0 -2
BITMAP
30
50
50
40
A0
E0
40
C0
ENDCHAR
STARTCHAR scommaaccent
ENCODING 537
SWIDTH 423 0
DWIDTH 3 0
BBX 3 6 0 -2
BITMAP
60
40
60
C0
80
80
ENDCHAR
STARTCHAR dotlessj
ENCODING 567
SWIDTH 277 0
DWIDTH 2 0
BBX 3 6 -1 -2
BITMAP
20
20
20
40
40
80
ENDCHAR
STARTCHAR circumflex
ENCODING 710
SWIDTH 354 0
DWIDTH 3 0
BBX 3 2 0 4
BITMAP
20
E0
ENDCHAR
STARTCHAR caron
ENCODING 711
SWIDTH 381 0
DWIDTH 3 0
BBX 3 2 0 4
BITMAP
A0
40
ENDCHAR
STARTCHAR breve
ENCODING 728
SWIDTH 344 0
DWIDTH 3 0
BBX 3 2 0 4
BITMAP
A0
40
ENDCHAR
STARTCHAR dotaccent
ENCODING 729
SWIDTH 217 0
DWIDTH 2 0
BBX 1 1 1 5
BITMAP
80
ENDCHAR
STARTCHAR ring
ENCODING 730
SWIDTH 402 0
DWIDTH 3 0
BBX 2 2 1 4
BITMAP
C0
C0
ENDCHAR
STARTCHAR ogonek
ENCODING 731
SWIDTH 311 0
DWIDTH 3 0
BBX 2 3 0 -2
BITMAP
40
80
C0
ENDCHAR
STARTCHAR tilde
ENCODING 732
SWIDTH 397 0
DWIDTH 3 0
BBX 4 1 0 5
BITMAP
F0
ENDCHAR
STARTCHAR hungarumlaut
ENCODING 733
SWIDTH 392 0
DWIDTH 3 0
BBX 3 2 0 4
BITMAP
60
A0
ENDCHAR
STARTCHAR pi
ENCODING 960
SWIDTH 640 0
DWIDTH 5 0
BBX 5 4 0 0
BITMAP
78
50
50
90
ENDCHAR
STARTCHAR uni1E02
ENCODING 7682
SWIDTH 551 0
DWIDTH 4 0
BBX 5 8 0 0
BITMAP
10
10
70
28
50
60
90
E0
ENDCHAR
STARTCHAR uni1E03
ENCODING 7683
SWIDTH 525 0
DWIDTH 4 0
BBX 4 7 0 0
BITMAP
40
50
40
70
50
90
E0
ENDCHAR
STARTCHAR uni1E0A
ENCODING 7690
SWIDTH 630 0
DWIDTH 5 0
BBX 5 8 0 0
BITMAP
10
10
78
28
48
48
90
E0
ENDCHAR
STARTCHAR uni1E0B
ENCODING 7691
SWIDTH 557 0
DWIDTH 4 0
BBX 5 7 0 0
BITMAP
08
68
08
30
50
B0
D0
ENDCHAR
STARTCHAR uni1E1E
ENCODING 7710
SWIDTH 518 0
DWIDTH 4 0
BBX 5 8 0 0
BITMAP
10
10
78
A0
20
70
40
80
ENDCHAR
STARTCHAR uni1E1F
ENCODING 7711
SWIDTH 393 0
DWIDTH 3 0
BBX 4 9 0 -1
BITMAP
30
10
30
40
E0
40
40
80
80
ENDCHAR
STARTCHAR uni1E40
ENCODING 7744
SWIDTH 931 0
DWIDTH 7 0
BBX 9 8 -1 0
BITMAP
0200
0200
0D80
1B00
2D00
2D00
4A00
8B00
ENDCHAR
STARTCHAR uni1E41
ENCODING 7745
SWIDTH 814 0
DWIDTH 7 0
BBX 6 6 0 0
BITMAP
18
00
74
5C
94
A4
ENDCHAR
STARTCHAR uni1E56
ENCODING 7766
SWIDTH 553 0
DWIDTH 4 0
BBX 5 8 0 0
BITMAP
10
10
78
28
58
60
80
80
ENDCHAR
STARTCHAR uni1E57
ENCODING 7767
SWIDTH 550 0
DWIDTH 4 0
BBX 5 8 -1 -2
BITMAP
10
00
38
28
48
70
40
80
ENDCHAR
STARTCHAR uni1E60
ENCODING 7776
SWIDTH 474 0
DWIDTH 4 0
BBX 4 8 0 0
BITMAP
10
10
30
50
50
40
A0
E0
ENDCHAR
STARTCHAR uni1E61
ENCODING 7777
SWIDTH 423 0
DWIDTH 3 0
BBX 3 6 0 0
BITMAP
20
00
60
40
60
C0
ENDCHAR
STARTCHAR uni1E6A
ENCODING 7786
SWIDTH 430 0
DWIDTH 3 0
BBX 5 8 0 0
BITMAP
10
10
F8
20
20
40
40
C0
ENDCHAR
STARTCHAR uni1E6B
ENCODING 7787
SWIDTH 358 0
DWIDTH 3 0
BBX 2 6 1 0
BITMAP
40
40
C0
80
80
C0
ENDCHAR
STARTCHAR Wgrave
ENCODING 7808
SWIDTH 941 0
DWIDTH 8 0
BBX 8 8 0 0
BITMAP
08
04
61
25
59
6A
B2
4C
ENDCHAR
STARTCHAR wgrave
ENCODING 7809
SWIDTH 750 0
DWIDTH 6 0
BBX 6 6 0 0
BITMAP
10
10
54
54
A4
D8
ENDCHAR
STARTCHAR Wacute
ENCODING 7810
SWIDTH 941 0
DWIDTH 8 0
BBX 8 8 0 0
BITMAP
04
04
61
25
59
6A
B2
4C
ENDCHAR
STARTCHAR wacute
ENCODING 7811
SWIDTH 750 0
DWIDTH 6 0
BBX 6 6 0 0
BITMAP
08
10
54
54
A4
D8
ENDCHAR
STARTCHAR Wdieresis
ENCODING 7812
SWIDTH 941 0
DWIDTH 8 0
BBX 8 8 0 0
BITMAP
0A
0A
61
25
59
6A
B2
4C
ENDCHAR
STARTCHAR wdieresis
ENCODING 7813
SWIDTH 750 0
DWIDTH 6 0
BBX 6 6 0 0
BITMAP
38
00
54
54
A4
D8
ENDCHAR
STARTCHAR Ygrave
ENCODING 7922
SWIDTH 580 0
DWIDTH 5 0
BBX 6 10 0 -2
BITMAP
10
08
64
48
48
50
B0
D0
20
C0
ENDCHAR
STARTCHAR ygrave
ENCODING 7923
SWIDTH 549 0
DWIDTH 4 0
BBX 4 8 0 -2
BITMAP
20
10
50
50
B0
E0
20
C0
ENDCHAR
STARTCHAR endash
ENCODING 8211
SWIDTH 751 0
DWIDTH 6 0
BBX 4 1 1 2
BITMAP
F0
ENDCHAR
STARTCHAR emdash
ENCODING 8212
SWIDTH 1066 0
DWIDTH 9 0
BBX 7 1 1 2
BITMAP
FE
ENDCHAR
STARTCHAR quoteleft
ENCODING 8216
SWIDTH 268 0
DWIDTH 2 0
BBX 1 2 1 5
BITMAP
80
80
ENDCHAR
STARTCHAR quoteright
ENCODING 8217
SWIDTH 268 0
DWIDTH 2 0
BBX 2 2 1 4
BITMAP
C0
80
ENDCHAR
STARTCHAR quotesinglbase
ENCODING 8218
SWIDTH 268 0
DWIDTH 2 0
BBX 1 2 0 -1
BITMAP
80
80
ENDCHAR
STARTCHAR quotedblleft
ENCODING 8220
SWIDTH 485 0
DWIDTH 4 0
BBX 3 2 1 5
BITMAP
E0
A0
ENDCHAR
STARTCHAR quotedblright
ENCODING 8221
SWIDTH 480 0
DWIDTH 4 0
BBX 3 2 1 5
BITMAP
60
A0
ENDCHAR
STARTCHAR quotedblbase
ENCODING 8222
SWIDTH 463 0
DWIDTH 4 0
BBX 3 2 0 -1
BITMAP
A0
A0
ENDCHAR
STARTCHAR dagger
ENCODING 8224
SWIDTH 488 0
DWIDTH 4 0
BBX 3 6 1 0
BITMAP
40
E0
40
80
80
80
ENDCHAR
STARTCHAR daggerdbl
ENCODING 8225
SWIDTH 488 0
DWIDTH 4 0
BBX 3 6 1 0
BITMAP
40
E0
40
C0
80
80
ENDCHAR
STARTCHAR bullet
ENCODING 8226
SWIDTH 437 0
DWIDTH 4 0
BBX 2 2 1 2
BITMAP
C0
C0
ENDCHAR
STARTCHAR ellipsis
ENCODING 8230
SWIDTH 810 0
DWIDTH 6 0
BBX 6 1 0 0
BITMAP
B4
ENDCHAR
STARTCHAR perthousand
ENCODING 8240
SWIDTH 1184 0
DWIDTH 9 0
BBX 8 6 1 0
BITMAP
D8
D0
A0
5B
6D
BE
ENDCHAR
STARTCHAR guilsinglleft
ENCODING 8249
SWIDTH 413 0
DWIDTH 3 0
BBX 2 3 1 1
BITMAP
40
80
C0
ENDCHAR
STARTCHAR guilsinglright
ENCODING 8250
SWIDTH 416 0
DWIDTH 3 0
BBX 3 3 0 1
BITMAP
40
20
C0
ENDCHAR
STARTCHAR fraction
ENCODING 8260
SWIDTH 580 0
DWIDTH 5 0
BBX 4 7 0 0
BITMAP
10
10
10
20
40
40
80
ENDCHAR
STARTCHAR Euro
ENCODING 8364
SWIDTH 622 0
DWIDTH 5 0
BBX 5 6 0 0
BITMAP
18
28
70
E0
40
70
ENDCHAR
STARTCHAR trademark
ENCODING 8482
SWIDTH 1084 0
DWIDTH 9 0
BBX 7 3 1 3
BITMAP
EA
5E
6A
ENDCHAR
STARTCHAR Omega
ENCODING 8486
SWIDTH 839 0
DWIDTH 7 0
BBX 6 6 0 0
BITMAP
38
44
44
44
44
EC
ENDCHAR
STARTCHAR partialdiff
ENCODING 8706
SWIDTH 580 0
DWIDTH 5 0
BBX 5 6 0 0
BITMAP
38
28
50
90
90
E0
ENDCHAR
STARTCHAR Delta
ENCODING 8710
SWIDTH 663 0
DWIDTH 5 0
BBX 5 5 0 0
BITMAP
20
30
50
48
F8
ENDCHAR
STARTCHAR product
ENCODING 8719
SWIDTH 667 0
DWIDTH 5 0
BBX 4 7 1 -1
BITMAP
F0
90
90
90
90
90
90
ENDCHAR
STARTCHAR summation
ENCODING 8721
SWIDTH 677 0
DWIDTH 5 0
BBX 5 7 0 -1
BITMAP
78
40
20
20
20
40
F8
ENDCHAR
STARTCHAR minus
ENCODING 8722
SWIDTH 617 0
DWIDTH 5 0
BBX 4 1 0 2
BITMAP
F0
ENDCHAR
STARTCHAR radical
ENCODING 8730
SWIDTH 709 0
DWIDTH 6 0
BBX 6 8 0 0
BITMAP
04
04
04
08
48
D0
50
20
ENDCHAR
STARTCHAR infinity
ENCODING 8734
SWIDTH 681 0
DWIDTH 5 0
BBX 5 2 0 2
BITMAP
78
F8
ENDCHAR
STARTCHAR integral
ENCODING 8747
SWIDTH 583 0
DWIDTH 5 0
BBX 7 9 -1 -2
BITMAP
0E
0C
10
10
10
10
60
A0
40
ENDCHAR
STARTCHAR approxequal
ENCODING 8776
SWIDTH 671 0
DWIDTH 5 0
BBX 5 3 0 1
BITMAP
78
68
B0
ENDCHAR
STARTCHAR notequal
ENCODING 8800
SWIDTH 617 0
DWIDTH 5 0
BBX 4 5 1 0
BITMAP
20
F0
70
80
80
ENDCHAR
STARTCHAR lessequal
ENCODING 8804
SWIDTH 704 0
DWIDTH 6 0
BBX 5 5 0 0
BITMAP
30
C0
60
10
78
ENDCHAR
STARTCHAR greaterequal
ENCODING 8805
SWIDTH 617 0
DWIDTH 5 0
BBX 5 5 0 0
BITMAP
60
18
20
40
F0
ENDCHAR
STARTCHAR lozenge
ENCODING 9674
SWIDTH 580 0
DWIDTH 5 0
BBX 4 6 0 0
BITMAP
20
50
90
90
50
20
ENDCHAR
STARTCHAR commaaccent
ENCODING 63171
SWIDTH 250 0
DWIDTH 2 0
BBX 2 2 0 -2
BITMAP
40
80
ENDCHAR
STARTCHAR ff
ENCODING 64256
SWIDTH 773 0
DWIDTH 6 0
BBX 7 8 0 -1
BITMAP
12
36
44
FC
48
48
90
90
ENDCHAR
STARTCHAR fi
ENCODING 64257
SWIDTH 623 0
DWIDTH 5 0
BBX 5 8 0 -1
BITMAP
18
28
28
78
C8
50
90
80
ENDCHAR
STARTCHAR fl
ENCODING 64258
SWIDTH 637 0
DWIDTH 5 0
BBX 5 8 0 -1
BITMAP
18
28
48
E8
50
50
98
80
ENDCHAR
STARTCHAR .notdef
ENCODING -1
SWIDTH 896 0
DWIDTH 7 0
BBX 8 7 0 0
BITMAP
3F
3F
2E
6E
6E
54
FC
ENDCHAR
ENDFONT
